<svg width="225" height="126" xmlns="http://www.w3.org/2000/svg" xmlns:xlink="http://www.w3.org/1999/xlink"><title>RequestRegistry/Tryout/V1/Icon</title><desc>Created with Sketch.</desc><defs><linearGradient x1=".258%" y1="49.75%" x2="101.258%" y2="49.75%" id="b"><stop stop-color="#271B96" offset="0%"/><stop stop-color="#53A0FD" offset="100%"/><stop stop-color="#5D12A3" offset="100%"/></linearGradient><path d="M55.5 112l55.5-21.102-30.595-11.633 30.595-11.633-30.595-11.633 30.595-11.633-30.595-11.633 30.595-11.633-55.5-21.102-55.5 21.102 30.595 11.633-30.595 11.633 30.595 11.633-30.595 11.633 30.595 11.633-30.595 11.633 55.5 21.102zm-42.404-90.898l42.404-16.123 42.404 16.123-24.047 9.143-18.357 6.98-18.357-6.98-24.047-9.143zm0 23.265l24.047-9.143 18.357 6.98 18.357-6.98 24.047 9.143-24.047 9.143-18.357 6.98-18.357-6.98-24.047-9.143zm0 23.265l24.047-9.143 18.357 6.98 18.357-6.98 24.047 9.143-24.047 9.143-18.357 6.98-18.357-6.98-24.047-9.143zm60.761 14.122l24.047 9.143-42.404 16.123-42.404-16.123 24.047-9.143 18.357 6.98 18.357-6.98z" id="a"/><polygon id="c" points="73.8570289 81.7548816 97.9041539 90.8982135 55.5 107.021188 13.0958461 90.8982135 37.1429711 81.7548816 55.5 88.7345243"/><polygon id="d" points="13.0958461 44.3672622 37.1429711 35.2239302 55.5 42.2035729 73.8570289 35.2239302 97.9041539 44.3672622 73.8570289 53.5105941 73.8570289 53.5105941 55.5 60.4902368 37.1429711 53.5105941 37.1429711 53.5105941"/><circle id="e" cx="15.4" cy="15.4" r="15.4"/><circle id="g" cx="15.4" cy="15.4" r="15.4"/><circle id="i" cx="15.4" cy="15.4" r="15.4"/><circle id="k" cx="15.4" cy="15.4" r="15.4"/></defs><g fill="none"><g transform="translate(56 14)"><g><use xlink:href="#a"/><use fill="url(#b)" xlink:href="#a"/></g><g id="Path" opacity=".9"><use xlink:href="#c"/><path stroke="#fff" stroke-width="2" d="M73.857 82.825l-18.357 6.98-18.357-6.98-21.233 8.073 39.59 15.053 39.59-15.053-21.233-8.073z" stroke-linejoin="square" fill="url(#b)" fill-rule="evenodd"/></g><g opacity=".6"><use xlink:href="#d"/><path stroke="#fff" stroke-width="2" d="M15.91 44.367l21.589 8.209 18.002 6.845 18.002-6.845 21.589-8.209-21.233-8.073-18.357 6.98-18.357-6.98-21.233 8.073z" stroke-linejoin="square" fill="url(#b)" fill-rule="evenodd"/></g></g><g><g id="Endpoint" transform="translate(190)"><g id="Color/Blue" fill-rule="evenodd" transform="translate(2.1 2.1)"><mask id="f"><use xlink:href="#e"/></mask><use id="Mask" xlink:href="#e"/><rect width="175" height="175" transform="translate(-75.6 -64.4)" mask="url(#f)" fill="#5097F7" id="Rectangle-3"/></g><path d="M17.5 31.5c7.732 0 14-6.268 14-14s-6.268-14-14-14-14 6.268-14 14 6.268 14 14 14z" id="Oval" stroke="#fff" stroke-width=".7" opacity=".5" stroke-dasharray="3.5,0.7,2.1"/></g><g id="Endpoint" transform="translate(0 28)"><g id="Color/Blue" fill-rule="evenodd" transform="translate(2.1 2.1)"><mask id="h"><use xlink:href="#g"/></mask><use id="Mask" xlink:href="#g"/><rect width="175" height="175" transform="translate(-75.6 -64.4)" id="Rectangle-3" mask="url(#h)" fill="#271B96"/></g><path d="M17.5 31.5c7.732 0 14-6.268 14-14s-6.268-14-14-14-14 6.268-14 14 6.268 14 14 14z" id="Oval" stroke="#fff" stroke-width=".7" opacity=".5" stroke-dasharray="3.5,0.7,2.1"/></g><g id="Endpoint" transform="translate(190 52)"><g id="Color/Blue" fill-rule="evenodd" transform="translate(2.1 2.1)"><mask id="j"><use xlink:href="#i"/></mask><use id="Mask" xlink:href="#i"/><rect width="175" height="175" transform="translate(-75.6 -64.4)" mask="url(#j)" fill="#5097F7" id="Rectangle-3"/></g><path d="M17.5 31.5c7.732 0 14-6.268 14-14s-6.268-14-14-14-14 6.268-14 14 6.268 14 14 14z" id="Oval" stroke="#fff" stroke-width=".7" opacity=".5" stroke-dasharray="3.5,0.7,2.1"/></g><g transform="translate(0 74)"><g fill-rule="evenodd" transform="translate(2.1 2.1)"><mask id="l"><use xlink:href="#k"/></mask><use xlink:href="#k"/><rect width="175" height="175" transform="translate(-75.6 -64.4)" mask="url(#l)" fill="#271B96"/></g><path d="M17.5 31.5c7.732 0 14-6.268 14-14s-6.268-14-14-14-14 6.268-14 14 6.268 14 14 14z" stroke="#fff" stroke-width=".7" opacity=".5" stroke-dasharray="3.5,0.7,2.1"/></g></g><path d="M188.5 18.25h-57" stroke="#B7B7B7" stroke-width="3" stroke-linecap="round" stroke-linejoin="round" stroke-dasharray="2,5"/><path d="M188.5 69.5h-39" stroke="#B7B7B7" stroke-width="3" stroke-linecap="round" stroke-linejoin="round" stroke-dasharray="2,5"/><path d="M35.5 46.5h37" stroke="#B7B7B7" stroke-width="3" stroke-linecap="round" stroke-linejoin="round" stroke-dasharray="2,5"/><path d="M35.5 93.5h42" stroke="#B7B7B7" stroke-width="3" stroke-linecap="round" stroke-linejoin="round" stroke-dasharray="2,5"/></g></svg>